DBRep_DrawableShape

CASCADE Topology V3, (c) Open Cascade
Locations 0
Curve2ds 6
1 0 0 0 -1
1 6.2831853071795862 0 0 -1
1 0 0 1 0
2 3.2049378106392736e-17 -4.3687976226996245e-17 1 0 -0 1 0.5
1 0 -1 1 0
2 3.2049378106392736e-17 -4.3687976226996245e-17 1 0 -0 1 0.5
Curves 3
1 0.5 0 0 0 0 1
2 0 0 0 0 0 1 1 0 0 0 1 0 0.5
2 0 0 1 0 0 1 1 0 0 0 1 0 0.5
Polygon3D 0
PolygonOnTriangulations 0
Surfaces 3
2 0 0 0 -0 -0 -1 1 0 0 0 1 0 0.5
1 -3.2049378106392736e-17 4.3687976226996245e-17 0 0 0 1 1 0 -0 -0 1 0
1 -3.2049378106392736e-17 4.3687976226996245e-17 1 0 0 1 1 0 -0 -0 1 0
Triangulations 0

TShapes 14
Ve
1e-07
0.5 0 0
0 0

0101101
*
Ve
1e-07
0.5 0 1
0 0

0101101
*
Ed
 1e-07 1 1 0
1  1 0 0 1
3  1 2CN 1 0 0 1
0

0101000
+14 0 -13 0 *
Ed
 1e-07 1 1 0
1  2 0 0 6.28318530717959
2  3 1 0 0 6.28318530717959
2  4 2 0 0 6.28318530717959
0

0101000
+14 0 -14 0 *
Ed
 1e-07 1 1 0
1  3 0 0 6.28318530717959
2  5 1 0 0 6.28318530717959
2  6 3 0 0 6.28318530717959
0

0101000
+13 0 -13 0 *
Wi

0101100
+12 0 -12 0 -11 0 +10 0 *
Fa
0  1e-07 1 0

0101000
+9 0 *
Wi

0101100
+11 0 *
Fa
0  1e-07 2 0

0101000
+7 0 *
Wi

0101100
+10 0 *
Fa
0  1e-07 3 0

0101000
+5 0 *
Sh

0101100
+8 0 +6 0 -4 0 *
So

0100000
-3 0 *
Co

1100000
+2 0 *

+1 0
